<svg version="1.1" xmlns="http://www.w3.org/2000/svg" width="136px" height="136px" viewBox="0 0 136 136"  preserveAspectRatio="xMinYMin meet"><rect width="100%" height="100%" fill="white" cx="0" cy="0"/><path d="M2,2l4,0 0,4 -4,0 0,-4z M6,2l4,0 0,4 -4,0 0,-4z M10,2l4,0 0,4 -4,0 0,-4z M14,2l4,0 0,4 -4,0 0,-4z M18,2l4,0 0,4 -4,0 0,-4z M22,2l4,0 0,4 -4,0 0,-4z M26,2l4,0 0,4 -4,0 0,-4z M34,2l4,0 0,4 -4,0 0,-4z M38,2l4,0 0,4 -4,0 0,-4z M62,2l4,0 0,4 -4,0 0,-4z M66,2l4,0 0,4 -4,0 0,-4z M70,2l4,0 0,4 -4,0 0,-4z M74,2l4,0 0,4 -4,0 0,-4z M78,2l4,0 0,4 -4,0 0,-4z M82,2l4,0 0,4 -4,0 0,-4z M86,2l4,0 0,4 -4,0 0,-4z M94,2l4,0 0,4 -4,0 0,-4z M106,2l4,0 0,4 -4,0 0,-4z M110,2l4,0 0,4 -4,0 0,-4z M114,2l4,0 0,4 -4,0 0,-4z M118,2l4,0 0,4 -4,0 0,-4z M122,2l4,0 0,4 -4,0 0,-4z M126,2l4,0 0,4 -4,0 0,-4z M130,2l4,0 0,4 -4,0 0,-4z M2,6l4,0 0,4 -4,0 0,-4z M26,6l4,0 0,4 -4,0 0,-4z M54,6l4,0 0,4 -4,0 0,-4z M58,6l4,0 0,4 -4,0 0,-4z M66,6l4,0 0,4 -4,0 0,-4z M70,6l4,0 0,4 -4,0 0,-4z M90,6l4,0 0,4 -4,0 0,-4z M94,6l4,0 0,4 -4,0 0,-4z M106,6l4,0 0,4 -4,0 0,-4z M130,6l4,0 0,4 -4,0 0,-4z M2,10l4,0 0,4 -4,0 0,-4z M10,10l4,0 0,4 -4,0 0,-4z M14,10l4,0 0,4 -4,0 0,-4z M18,10l4,0 0,4 -4,0 0,-4z M26,10l4,0 0,4 -4,0 0,-4z M34,10l4,0 0,4 -4,0 0,-4z M46,10l4,0 0,4 -4,0 0,-4z M50,10l4,0 0,4 -4,0 0,-4z M54,10l4,0 0,4 -4,0 0,-4z M62,10l4,0 0,4 -4,0 0,-4z M66,10l4,0 0,4 -4,0 0,-4z M74,10l4,0 0,4 -4,0 0,-4z M94,10l4,0 0,4 -4,0 0,-4z M106,10l4,0 0,4 -4,0 0,-4z M114,10l4,0 0,4 -4,0 0,-4z M118,10l4,0 0,4 -4,0 0,-4z M122,10l4,0 0,4 -4,0 0,-4z M130,10l4,0 0,4 -4,0 0,-4z M2,14l4,0 0,4 -4,0 0,-4z M10,14l4,0 0,4 -4,0 0,-4z M14,14l4,0 0,4 -4,0 0,-4z M18,14l4,0 0,4 -4,0 0,-4z M26,14l4,0 0,4 -4,0 0,-4z M34,14l4,0 0,4 -4,0 0,-4z M38,14l4,0 0,4 -4,0 0,-4z M46,14l4,0 0,4 -4,0 0,-4z M58,14l4,0 0,4 -4,0 0,-4z M62,14l4,0 0,4 -4,0 0,-4z M70,14l4,0 0,4 -4,0 0,-4z M74,14l4,0 0,4 -4,0 0,-4z M82,14l4,0 0,4 -4,0 0,-4z M90,14l4,0 0,4 -4,0 0,-4z M98,14l4,0 0,4 -4,0 0,-4z M106,14l4,0 0,4 -4,0 0,-4z M114,14l4,0 0,4 -4,0 0,-4z M118,14l4,0 0,4 -4,0 0,-4z M122,14l4,0 0,4 -4,0 0,-4z M130,14l4,0 0,4 -4,0 0,-4z M2,18l4,0 0,4 -4,0 0,-4z M10,18l4,0 0,4 -4,0 0,-4z M14,18l4,0 0,4 -4,0 0,-4z M18,18l4,0 0,4 -4,0 0,-4z M26,18l4,0 0,4 -4,0 0,-4z M34,18l4,0 0,4 -4,0 0,-4z M38,18l4,0 0,4 -4,0 0,-4z M42,18l4,0 0,4 -4,0 0,-4z M46,18l4,0 0,4 -4,0 0,-4z M58,18l4,0 0,4 -4,0 0,-4z M66,18l4,0 0,4 -4,0 0,-4z M74,18l4,0 0,4 -4,0 0,-4z M78,18l4,0 0,4 -4,0 0,-4z M98,18l4,0 0,4 -4,0 0,-4z M106,18l4,0 0,4 -4,0 0,-4z M114,18l4,0 0,4 -4,0 0,-4z M118,18l4,0 0,4 -4,0 0,-4z M122,18l4,0 0,4 -4,0 0,-4z M130,18l4,0 0,4 -4,0 0,-4z M2,22l4,0 0,4 -4,0 0,-4z M26,22l4,0 0,4 -4,0 0,-4z M38,22l4,0 0,4 -4,0 0,-4z M50,22l4,0 0,4 -4,0 0,-4z M58,22l4,0 0,4 -4,0 0,-4z M74,22l4,0 0,4 -4,0 0,-4z M78,22l4,0 0,4 -4,0 0,-4z M82,22l4,0 0,4 -4,0 0,-4z M98,22l4,0 0,4 -4,0 0,-4z M106,22l4,0 0,4 -4,0 0,-4z M130,22l4,0 0,4 -4,0 0,-4z M2,26l4,0 0,4 -4,0 0,-4z M6,26l4,0 0,4 -4,0 0,-4z M10,26l4,0 0,4 -4,0 0,-4z M14,26l4,0 0,4 -4,0 0,-4z M18,26l4,0 0,4 -4,0 0,-4z M22,26l4,0 0,4 -4,0 0,-4z M26,26l4,0 0,4 -4,0 0,-4z M34,26l4,0 0,4 -4,0 0,-4z M42,26l4,0 0,4 -4,0 0,-4z M50,26l4,0 0,4 -4,0 0,-4z M58,26l4,0 0,4 -4,0 0,-4z M66,26l4,0 0,4 -4,0 0,-4z M74,26l4,0 0,4 -4,0 0,-4z M82,26l4,0 0,4 -4,0 0,-4z M90,26l4,0 0,4 -4,0 0,-4z M98,26l4,0 0,4 -4,0 0,-4z M106,26l4,0 0,4 -4,0 0,-4z M110,26l4,0 0,4 -4,0 0,-4z M114,26l4,0 0,4 -4,0 0,-4z M118,26l4,0 0,4 -4,0 0,-4z M122,26l4,0 0,4 -4,0 0,-4z M126,26l4,0 0,4 -4,0 0,-4z M130,26l4,0 0,4 -4,0 0,-4z M38,30l4,0 0,4 -4,0 0,-4z M46,30l4,0 0,4 -4,0 0,-4z M58,30l4,0 0,4 -4,0 0,-4z M70,30l4,0 0,4 -4,0 0,-4z M74,30l4,0 0,4 -4,0 0,-4z M78,30l4,0 0,4 -4,0 0,-4z M94,30l4,0 0,4 -4,0 0,-4z M98,30l4,0 0,4 -4,0 0,-4z M2,34l4,0 0,4 -4,0 0,-4z M6,34l4,0 0,4 -4,0 0,-4z M10,34l4,0 0,4 -4,0 0,-4z M14,34l4,0 0,4 -4,0 0,-4z M26,34l4,0 0,4 -4,0 0,-4z M34,34l4,0 0,4 -4,0 0,-4z M70,34l4,0 0,4 -4,0 0,-4z M74,34l4,0 0,4 -4,0 0,-4z M82,34l4,0 0,4 -4,0 0,-4z M86,34l4,0 0,4 -4,0 0,-4z M90,34l4,0 0,4 -4,0 0,-4z M94,34l4,0 0,4 -4,0 0,-4z M102,34l4,0 0,4 -4,0 0,-4z M114,34l4,0 0,4 -4,0 0,-4z M118,34l4,0 0,4 -4,0 0,-4z M122,34l4,0 0,4 -4,0 0,-4z M130,34l4,0 0,4 -4,0 0,-4z M2,38l4,0 0,4 -4,0 0,-4z M6,38l4,0 0,4 -4,0 0,-4z M10,38l4,0 0,4 -4,0 0,-4z M22,38l4,0 0,4 -4,0 0,-4z M34,38l4,0 0,4 -4,0 0,-4z M38,38l4,0 0,4 -4,0 0,-4z M62,38l4,0 0,4 -4,0 0,-4z M66,38l4,0 0,4 -4,0 0,-4z M78,38l4,0 0,4 -4,0 0,-4z M94,38l4,0 0,4 -4,0 0,-4z M102,38l4,0 0,4 -4,0 0,-4z M106,38l4,0 0,4 -4,0 0,-4z M122,38l4,0 0,4 -4,0 0,-4z M126,38l4,0 0,4 -4,0 0,-4z M130,38l4,0 0,4 -4,0 0,-4z M6,42l4,0 0,4 -4,0 0,-4z M18,42l4,0 0,4 -4,0 0,-4z M22,42l4,0 0,4 -4,0 0,-4z M26,42l4,0 0,4 -4,0 0,-4z M54,42l4,0 0,4 -4,0 0,-4z M58,42l4,0 0,4 -4,0 0,-4z M70,42l4,0 0,4 -4,0 0,-4z M86,42l4,0 0,4 -4,0 0,-4z M90,42l4,0 0,4 -4,0 0,-4z M94,42l4,0 0,4 -4,0 0,-4z M98,42l4,0 0,4 -4,0 0,-4z M102,42l4,0 0,4 -4,0 0,-4z M106,42l4,0 0,4 -4,0 0,-4z M110,42l4,0 0,4 -4,0 0,-4z M122,42l4,0 0,4 -4,0 0,-4z M126,42l4,0 0,4 -4,0 0,-4z M130,42l4,0 0,4 -4,0 0,-4z M6,46l4,0 0,4 -4,0 0,-4z M22,46l4,0 0,4 -4,0 0,-4z M46,46l4,0 0,4 -4,0 0,-4z M50,46l4,0 0,4 -4,0 0,-4z M54,46l4,0 0,4 -4,0 0,-4z M74,46l4,0 0,4 -4,0 0,-4z M82,46l4,0 0,4 -4,0 0,-4z M98,46l4,0 0,4 -4,0 0,-4z M102,46l4,0 0,4 -4,0 0,-4z M110,46l4,0 0,4 -4,0 0,-4z M114,46l4,0 0,4 -4,0 0,-4z M126,46l4,0 0,4 -4,0 0,-4z M10,50l4,0 0,4 -4,0 0,-4z M14,50l4,0 0,4 -4,0 0,-4z M18,50l4,0 0,4 -4,0 0,-4z M26,50l4,0 0,4 -4,0 0,-4z M38,50l4,0 0,4 -4,0 0,-4z M46,50l4,0 0,4 -4,0 0,-4z M62,50l4,0 0,4 -4,0 0,-4z M66,50l4,0 0,4 -4,0 0,-4z M78,50l4,0 0,4 -4,0 0,-4z M90,50l4,0 0,4 -4,0 0,-4z M98,50l4,0 0,4 -4,0 0,-4z M102,50l4,0 0,4 -4,0 0,-4z M114,50l4,0 0,4 -4,0 0,-4z M118,50l4,0 0,4 -4,0 0,-4z M2,54l4,0 0,4 -4,0 0,-4z M14,54l4,0 0,4 -4,0 0,-4z M18,54l4,0 0,4 -4,0 0,-4z M30,54l4,0 0,4 -4,0 0,-4z M34,54l4,0 0,4 -4,0 0,-4z M42,54l4,0 0,4 -4,0 0,-4z M46,54l4,0 0,4 -4,0 0,-4z M54,54l4,0 0,4 -4,0 0,-4z M58,54l4,0 0,4 -4,0 0,-4z M62,54l4,0 0,4 -4,0 0,-4z M70,54l4,0 0,4 -4,0 0,-4z M74,54l4,0 0,4 -4,0 0,-4z M78,54l4,0 0,4 -4,0 0,-4z M90,54l4,0 0,4 -4,0 0,-4z M98,54l4,0 0,4 -4,0 0,-4z M102,54l4,0 0,4 -4,0 0,-4z M110,54l4,0 0,4 -4,0 0,-4z M118,54l4,0 0,4 -4,0 0,-4z M122,54l4,0 0,4 -4,0 0,-4z M126,54l4,0 0,4 -4,0 0,-4z M2,58l4,0 0,4 -4,0 0,-4z M14,58l4,0 0,4 -4,0 0,-4z M22,58l4,0 0,4 -4,0 0,-4z M26,58l4,0 0,4 -4,0 0,-4z M30,58l4,0 0,4 -4,0 0,-4z M42,58l4,0 0,4 -4,0 0,-4z M50,58l4,0 0,4 -4,0 0,-4z M58,58l4,0 0,4 -4,0 0,-4z M74,58l4,0 0,4 -4,0 0,-4z M78,58l4,0 0,4 -4,0 0,-4z M82,58l4,0 0,4 -4,0 0,-4z M86,58l4,0 0,4 -4,0 0,-4z M90,58l4,0 0,4 -4,0 0,-4z M98,58l4,0 0,4 -4,0 0,-4z M110,58l4,0 0,4 -4,0 0,-4z M122,58l4,0 0,4 -4,0 0,-4z M10,62l4,0 0,4 -4,0 0,-4z M50,62l4,0 0,4 -4,0 0,-4z M54,62l4,0 0,4 -4,0 0,-4z M62,62l4,0 0,4 -4,0 0,-4z M86,62l4,0 0,4 -4,0 0,-4z M90,62l4,0 0,4 -4,0 0,-4z M94,62l4,0 0,4 -4,0 0,-4z M102,62l4,0 0,4 -4,0 0,-4z M114,62l4,0 0,4 -4,0 0,-4z M122,62l4,0 0,4 -4,0 0,-4z M10,66l4,0 0,4 -4,0 0,-4z M26,66l4,0 0,4 -4,0 0,-4z M30,66l4,0 0,4 -4,0 0,-4z M34,66l4,0 0,4 -4,0 0,-4z M42,66l4,0 0,4 -4,0 0,-4z M46,66l4,0 0,4 -4,0 0,-4z M66,66l4,0 0,4 -4,0 0,-4z M74,66l4,0 0,4 -4,0 0,-4z M78,66l4,0 0,4 -4,0 0,-4z M86,66l4,0 0,4 -4,0 0,-4z M90,66l4,0 0,4 -4,0 0,-4z M102,66l4,0 0,4 -4,0 0,-4z M106,66l4,0 0,4 -4,0 0,-4z M114,66l4,0 0,4 -4,0 0,-4z M118,66l4,0 0,4 -4,0 0,-4z M122,66l4,0 0,4 -4,0 0,-4z M126,66l4,0 0,4 -4,0 0,-4z M130,66l4,0 0,4 -4,0 0,-4z M6,70l4,0 0,4 -4,0 0,-4z M10,70l4,0 0,4 -4,0 0,-4z M18,70l4,0 0,4 -4,0 0,-4z M30,70l4,0 0,4 -4,0 0,-4z M34,70l4,0 0,4 -4,0 0,-4z M50,70l4,0 0,4 -4,0 0,-4z M54,70l4,0 0,4 -4,0 0,-4z M62,70l4,0 0,4 -4,0 0,-4z M78,70l4,0 0,4 -4,0 0,-4z M82,70l4,0 0,4 -4,0 0,-4z M94,70l4,0 0,4 -4,0 0,-4z M102,70l4,0 0,4 -4,0 0,-4z M106,70l4,0 0,4 -4,0 0,-4z M110,70l4,0 0,4 -4,0 0,-4z M114,70l4,0 0,4 -4,0 0,-4z M118,70l4,0 0,4 -4,0 0,-4z M122,70l4,0 0,4 -4,0 0,-4z M130,70l4,0 0,4 -4,0 0,-4z M26,74l4,0 0,4 -4,0 0,-4z M30,74l4,0 0,4 -4,0 0,-4z M38,74l4,0 0,4 -4,0 0,-4z M46,74l4,0 0,4 -4,0 0,-4z M50,74l4,0 0,4 -4,0 0,-4z M62,74l4,0 0,4 -4,0 0,-4z M66,74l4,0 0,4 -4,0 0,-4z M70,74l4,0 0,4 -4,0 0,-4z M74,74l4,0 0,4 -4,0 0,-4z M86,74l4,0 0,4 -4,0 0,-4z M118,74l4,0 0,4 -4,0 0,-4z M126,74l4,0 0,4 -4,0 0,-4z M2,78l4,0 0,4 -4,0 0,-4z M10,78l4,0 0,4 -4,0 0,-4z M22,78l4,0 0,4 -4,0 0,-4z M38,78l4,0 0,4 -4,0 0,-4z M42,78l4,0 0,4 -4,0 0,-4z M50,78l4,0 0,4 -4,0 0,-4z M66,78l4,0 0,4 -4,0 0,-4z M70,78l4,0 0,4 -4,0 0,-4z M82,78l4,0 0,4 -4,0 0,-4z M90,78l4,0 0,4 -4,0 0,-4z M94,78l4,0 0,4 -4,0 0,-4z M98,78l4,0 0,4 -4,0 0,-4z M114,78l4,0 0,4 -4,0 0,-4z M118,78l4,0 0,4 -4,0 0,-4z M130,78l4,0 0,4 -4,0 0,-4z M10,82l4,0 0,4 -4,0 0,-4z M18,82l4,0 0,4 -4,0 0,-4z M22,82l4,0 0,4 -4,0 0,-4z M26,82l4,0 0,4 -4,0 0,-4z M34,82l4,0 0,4 -4,0 0,-4z M42,82l4,0 0,4 -4,0 0,-4z M46,82l4,0 0,4 -4,0 0,-4z M50,82l4,0 0,4 -4,0 0,-4z M54,82l4,0 0,4 -4,0 0,-4z M62,82l4,0 0,4 -4,0 0,-4z M66,82l4,0 0,4 -4,0 0,-4z M74,82l4,0 0,4 -4,0 0,-4z M86,82l4,0 0,4 -4,0 0,-4z M94,82l4,0 0,4 -4,0 0,-4z M110,82l4,0 0,4 -4,0 0,-4z M122,82l4,0 0,4 -4,0 0,-4z M2,86l4,0 0,4 -4,0 0,-4z M30,86l4,0 0,4 -4,0 0,-4z M42,86l4,0 0,4 -4,0 0,-4z M50,86l4,0 0,4 -4,0 0,-4z M54,86l4,0 0,4 -4,0 0,-4z M58,86l4,0 0,4 -4,0 0,-4z M62,86l4,0 0,4 -4,0 0,-4z M66,86l4,0 0,4 -4,0 0,-4z M70,86l4,0 0,4 -4,0 0,-4z M82,86l4,0 0,4 -4,0 0,-4z M86,86l4,0 0,4 -4,0 0,-4z M94,86l4,0 0,4 -4,0 0,-4z M106,86l4,0 0,4 -4,0 0,-4z M118,86l4,0 0,4 -4,0 0,-4z M126,86l4,0 0,4 -4,0 0,-4z M130,86l4,0 0,4 -4,0 0,-4z M10,90l4,0 0,4 -4,0 0,-4z M14,90l4,0 0,4 -4,0 0,-4z M18,90l4,0 0,4 -4,0 0,-4z M26,90l4,0 0,4 -4,0 0,-4z M30,90l4,0 0,4 -4,0 0,-4z M38,90l4,0 0,4 -4,0 0,-4z M42,90l4,0 0,4 -4,0 0,-4z M46,90l4,0 0,4 -4,0 0,-4z M50,90l4,0 0,4 -4,0 0,-4z M54,90l4,0 0,4 -4,0 0,-4z M66,90l4,0 0,4 -4,0 0,-4z M70,90l4,0 0,4 -4,0 0,-4z M90,90l4,0 0,4 -4,0 0,-4z M94,90l4,0 0,4 -4,0 0,-4z M98,90l4,0 0,4 -4,0 0,-4z M102,90l4,0 0,4 -4,0 0,-4z M106,90l4,0 0,4 -4,0 0,-4z M114,90l4,0 0,4 -4,0 0,-4z M122,90l4,0 0,4 -4,0 0,-4z M126,90l4,0 0,4 -4,0 0,-4z M130,90l4,0 0,4 -4,0 0,-4z M6,94l4,0 0,4 -4,0 0,-4z M10,94l4,0 0,4 -4,0 0,-4z M14,94l4,0 0,4 -4,0 0,-4z M30,94l4,0 0,4 -4,0 0,-4z M38,94l4,0 0,4 -4,0 0,-4z M42,94l4,0 0,4 -4,0 0,-4z M62,94l4,0 0,4 -4,0 0,-4z M82,94l4,0 0,4 -4,0 0,-4z M94,94l4,0 0,4 -4,0 0,-4z M98,94l4,0 0,4 -4,0 0,-4z M110,94l4,0 0,4 -4,0 0,-4z M118,94l4,0 0,4 -4,0 0,-4z M126,94l4,0 0,4 -4,0 0,-4z M2,98l4,0 0,4 -4,0 0,-4z M22,98l4,0 0,4 -4,0 0,-4z M26,98l4,0 0,4 -4,0 0,-4z M30,98l4,0 0,4 -4,0 0,-4z M38,98l4,0 0,4 -4,0 0,-4z M42,98l4,0 0,4 -4,0 0,-4z M50,98l4,0 0,4 -4,0 0,-4z M58,98l4,0 0,4 -4,0 0,-4z M70,98l4,0 0,4 -4,0 0,-4z M74,98l4,0 0,4 -4,0 0,-4z M78,98l4,0 0,4 -4,0 0,-4z M90,98l4,0 0,4 -4,0 0,-4z M94,98l4,0 0,4 -4,0 0,-4z M98,98l4,0 0,4 -4,0 0,-4z M102,98l4,0 0,4 -4,0 0,-4z M106,98l4,0 0,4 -4,0 0,-4z M110,98l4,0 0,4 -4,0 0,-4z M114,98l4,0 0,4 -4,0 0,-4z M118,98l4,0 0,4 -4,0 0,-4z M130,98l4,0 0,4 -4,0 0,-4z M34,102l4,0 0,4 -4,0 0,-4z M38,102l4,0 0,4 -4,0 0,-4z M46,102l4,0 0,4 -4,0 0,-4z M50,102l4,0 0,4 -4,0 0,-4z M58,102l4,0 0,4 -4,0 0,-4z M66,102l4,0 0,4 -4,0 0,-4z M86,102l4,0 0,4 -4,0 0,-4z M94,102l4,0 0,4 -4,0 0,-4z M98,102l4,0 0,4 -4,0 0,-4z M114,102l4,0 0,4 -4,0 0,-4z M2,106l4,0 0,4 -4,0 0,-4z M6,106l4,0 0,4 -4,0 0,-4z M10,106l4,0 0,4 -4,0 0,-4z M14,106l4,0 0,4 -4,0 0,-4z M18,106l4,0 0,4 -4,0 0,-4z M22,106l4,0 0,4 -4,0 0,-4z M26,106l4,0 0,4 -4,0 0,-4z M42,106l4,0 0,4 -4,0 0,-4z M46,106l4,0 0,4 -4,0 0,-4z M54,106l4,0 0,4 -4,0 0,-4z M74,106l4,0 0,4 -4,0 0,-4z M78,106l4,0 0,4 -4,0 0,-4z M82,106l4,0 0,4 -4,0 0,-4z M86,106l4,0 0,4 -4,0 0,-4z M90,106l4,0 0,4 -4,0 0,-4z M94,106l4,0 0,4 -4,0 0,-4z M98,106l4,0 0,4 -4,0 0,-4z M106,106l4,0 0,4 -4,0 0,-4z M114,106l4,0 0,4 -4,0 0,-4z M118,106l4,0 0,4 -4,0 0,-4z M122,106l4,0 0,4 -4,0 0,-4z M2,110l4,0 0,4 -4,0 0,-4z M26,110l4,0 0,4 -4,0 0,-4z M46,110l4,0 0,4 -4,0 0,-4z M58,110l4,0 0,4 -4,0 0,-4z M78,110l4,0 0,4 -4,0 0,-4z M86,110l4,0 0,4 -4,0 0,-4z M90,110l4,0 0,4 -4,0 0,-4z M94,110l4,0 0,4 -4,0 0,-4z M98,110l4,0 0,4 -4,0 0,-4z M114,110l4,0 0,4 -4,0 0,-4z M118,110l4,0 0,4 -4,0 0,-4z M122,110l4,0 0,4 -4,0 0,-4z M130,110l4,0 0,4 -4,0 0,-4z M2,114l4,0 0,4 -4,0 0,-4z M10,114l4,0 0,4 -4,0 0,-4z M14,114l4,0 0,4 -4,0 0,-4z M18,114l4,0 0,4 -4,0 0,-4z M26,114l4,0 0,4 -4,0 0,-4z M50,114l4,0 0,4 -4,0 0,-4z M58,114l4,0 0,4 -4,0 0,-4z M74,114l4,0 0,4 -4,0 0,-4z M90,114l4,0 0,4 -4,0 0,-4z M94,114l4,0 0,4 -4,0 0,-4z M98,114l4,0 0,4 -4,0 0,-4z M102,114l4,0 0,4 -4,0 0,-4z M106,114l4,0 0,4 -4,0 0,-4z M110,114l4,0 0,4 -4,0 0,-4z M114,114l4,0 0,4 -4,0 0,-4z M122,114l4,0 0,4 -4,0 0,-4z M126,114l4,0 0,4 -4,0 0,-4z M2,118l4,0 0,4 -4,0 0,-4z M10,118l4,0 0,4 -4,0 0,-4z M14,118l4,0 0,4 -4,0 0,-4z M18,118l4,0 0,4 -4,0 0,-4z M26,118l4,0 0,4 -4,0 0,-4z M34,118l4,0 0,4 -4,0 0,-4z M42,118l4,0 0,4 -4,0 0,-4z M58,118l4,0 0,4 -4,0 0,-4z M70,118l4,0 0,4 -4,0 0,-4z M90,118l4,0 0,4 -4,0 0,-4z M94,118l4,0 0,4 -4,0 0,-4z M98,118l4,0 0,4 -4,0 0,-4z M102,118l4,0 0,4 -4,0 0,-4z M118,118l4,0 0,4 -4,0 0,-4z M130,118l4,0 0,4 -4,0 0,-4z M2,122l4,0 0,4 -4,0 0,-4z M10,122l4,0 0,4 -4,0 0,-4z M14,122l4,0 0,4 -4,0 0,-4z M18,122l4,0 0,4 -4,0 0,-4z M26,122l4,0 0,4 -4,0 0,-4z M34,122l4,0 0,4 -4,0 0,-4z M38,122l4,0 0,4 -4,0 0,-4z M54,122l4,0 0,4 -4,0 0,-4z M58,122l4,0 0,4 -4,0 0,-4z M62,122l4,0 0,4 -4,0 0,-4z M66,122l4,0 0,4 -4,0 0,-4z M70,122l4,0 0,4 -4,0 0,-4z M82,122l4,0 0,4 -4,0 0,-4z M90,122l4,0 0,4 -4,0 0,-4z M98,122l4,0 0,4 -4,0 0,-4z M106,122l4,0 0,4 -4,0 0,-4z M110,122l4,0 0,4 -4,0 0,-4z M118,122l4,0 0,4 -4,0 0,-4z M2,126l4,0 0,4 -4,0 0,-4z M26,126l4,0 0,4 -4,0 0,-4z M34,126l4,0 0,4 -4,0 0,-4z M38,126l4,0 0,4 -4,0 0,-4z M42,126l4,0 0,4 -4,0 0,-4z M46,126l4,0 0,4 -4,0 0,-4z M54,126l4,0 0,4 -4,0 0,-4z M58,126l4,0 0,4 -4,0 0,-4z M70,126l4,0 0,4 -4,0 0,-4z M94,126l4,0 0,4 -4,0 0,-4z M98,126l4,0 0,4 -4,0 0,-4z M102,126l4,0 0,4 -4,0 0,-4z M110,126l4,0 0,4 -4,0 0,-4z M114,126l4,0 0,4 -4,0 0,-4z M130,126l4,0 0,4 -4,0 0,-4z M2,130l4,0 0,4 -4,0 0,-4z M6,130l4,0 0,4 -4,0 0,-4z M10,130l4,0 0,4 -4,0 0,-4z M14,130l4,0 0,4 -4,0 0,-4z M18,130l4,0 0,4 -4,0 0,-4z M22,130l4,0 0,4 -4,0 0,-4z M26,130l4,0 0,4 -4,0 0,-4z M34,130l4,0 0,4 -4,0 0,-4z M38,130l4,0 0,4 -4,0 0,-4z M42,130l4,0 0,4 -4,0 0,-4z M54,130l4,0 0,4 -4,0 0,-4z M58,130l4,0 0,4 -4,0 0,-4z M70,130l4,0 0,4 -4,0 0,-4z M74,130l4,0 0,4 -4,0 0,-4z M78,130l4,0 0,4 -4,0 0,-4z M86,130l4,0 0,4 -4,0 0,-4z M94,130l4,0 0,4 -4,0 0,-4z M102,130l4,0 0,4 -4,0 0,-4z M106,130l4,0 0,4 -4,0 0,-4z M110,130l4,0 0,4 -4,0 0,-4z M114,130l4,0 0,4 -4,0 0,-4z M118,130l4,0 0,4 -4,0 0,-4z M122,130l4,0 0,4 -4,0 0,-4z " stroke="transparent" fill="black"/></svg>