<svg xmlns:dc="http://purl.org/dc/elements/1.1/" xmlns:cc="http://creativecommons.org/ns#" xmlns:rdf="http://www.w3.org/1999/02/22-rdf-syntax-ns#" xmlns:svg="http://www.w3.org/2000/svg" xmlns="http://www.w3.org/2000/svg" xmlns:sodipodi="http://sodipodi.sourceforge.net/DTD/sodipodi-0.dtd" xmlns:inkscape="http://www.inkscape.org/namespaces/inkscape" viewBox="0 0 10.583333 13.2291675" version="1.1" x="0px" y="0px"><svg:g><svg:path style="color:#000000;font-style:normal;font-variant:normal;font-weight:normal;font-stretch:normal;font-size:medium;line-height:normal;font-family:sans-serif;font-variant-ligatures:normal;font-variant-position:normal;font-variant-caps:normal;font-variant-numeric:normal;font-variant-alternates:normal;font-feature-settings:normal;text-indent:0;text-align:start;text-decoration:none;text-decoration-line:none;text-decoration-style:solid;text-decoration-color:#000000;letter-spacing:normal;word-spacing:normal;text-transform:none;writing-mode:lr-tb;direction:ltr;text-orientation:mixed;dominant-baseline:auto;baseline-shift:baseline;text-anchor:start;white-space:normal;shape-padding:0;clip-rule:nonzero;display:inline;overflow:visible;visibility:visible;opacity:1;isolation:auto;mix-blend-mode:normal;color-interpolation:sRGB;color-interpolation-filters:linearRGB;solid-color:#000000;solid-opacity:1;vector-effect:none;fill:#000000;fill-opacity:1;fill-rule:nonzero;stroke:none;stroke-width:0.5291667;stroke-linecap:round;stroke-linejoin:round;stroke-miterlimit:4;stroke-dasharray:none;stroke-dashoffset:0;stroke-opacity:1;color-rendering:auto;image-rendering:auto;shape-rendering:auto;text-rendering:auto;enable-background:accumulate" d="M 8.3206815,0.79371403 C 7.9441344,0.79406103 7.5676323,0.93748903 7.2814669,1.223662 L 6.7693553,1.736292 C 6.2610272,2.24462 6.2044381,3.037452 6.5988208,3.609563 L 6.382299,3.826088 C 5.8101825,3.431636 5.0168585,3.488771 4.5085093,3.997136 L 3.9958791,4.50925 C 3.4874743,5.017655 3.4307608,5.810907 3.8253472,6.383037 L 3.6088228,6.599561 C 3.0366931,6.204962 2.2439591,6.26167 1.7355543,6.770093 l -0.5126302,0.51263 c -0.57232818,0.572329 -0.57232818,1.504548 0,2.076876 0.5723255,0.572329 1.5060982,0.573858 2.0784237,0.0016 L 3.813978,8.848569 C 4.3220362,8.340513 4.3779427,7.547067 3.983994,6.974782 L 4.2005184,6.758257 C 4.7728042,7.152206 5.5667659,7.095781 6.0748241,6.587725 L 6.5869357,6.075562 C 7.0950071,5.567491 7.15094,4.774063 6.7569516,4.201775 L 6.973992,3.984735 C 7.5462831,4.37872 8.3397103,4.32279 8.8477791,3.814719 L 9.3604093,3.302088 c 0.5723281,-0.572328 0.5723281,-1.507132 0,-2.07946 C 9.0742465,0.93646503 8.6972259,0.79336803 8.3206815,0.79371403 Z m 0,0.52503397 c 0.2396146,-3.49e-4 0.4793218,0.09228 0.6650751,0.278019 0.3715041,0.371504 0.3715041,0.959678 0,1.331185 L 8.4736424,3.440582 C 8.168091,3.746133 7.7171298,3.796293 7.3594978,3.599229 L 7.7300177,3.228706 A 0.26460981,0.26460981 0 0 0 7.5367501,2.773438 0.26460981,0.26460981 0 0 0 7.3548491,2.853538 L 6.9843293,3.224058 C 6.7869316,2.866598 6.8376337,2.416271 7.143492,2.110429 L 7.6561222,1.598317 C 7.8418729,1.412564 8.0810642,1.319095 8.3206815,1.318748 Z M 5.5477238,4.091703 C 5.7026056,4.091478 5.8559396,4.134633 5.9962746,4.21211 L 5.6262707,4.582113 A 0.26528638,0.26528638 0 0 0 6.0014419,4.957285 L 6.3714458,4.587281 C 6.5685101,4.944913 6.518353,5.395871 6.212799,5.701425 L 5.7001688,6.21354 C 5.3946174,6.519091 4.9441748,6.569248 4.5865428,6.372184 L 4.9565441,6.002182 A 0.26460981,0.26460981 0 0 0 4.7632739,5.546911 0.26460981,0.26460981 0 0 0 4.5813729,5.627011 L 4.210853,5.997531 C 4.013458,5.640071 4.064676,5.189229 4.3705344,4.883387 L 4.8826486,4.371272 C 5.0683993,4.185522 5.3081066,4.092052 5.5477238,4.091703 Z M 2.7747661,6.865179 C 2.929677,6.864954 3.0829607,6.907559 3.2233169,6.985067 L 2.8527971,7.355587 A 0.26528612,0.26528612 0 1 0 3.2279683,7.730758 L 3.5979722,7.360754 C 3.7948328,7.718339 3.7447895,8.168919 3.4393254,8.474383 l -0.5121143,0.51263 c -0.3715041,0.371504 -0.9596808,0.371504 -1.3311849,0 C 1.2245221,8.615509 1.2255355,8.028367 1.5970562,7.65686 L 2.109691,7.14423 C 2.2954417,6.958477 2.5351515,6.865526 2.7747661,6.865179 Z"/></svg:g><text x="0" y="25.583334" fill="#000000" font-size="5px" font-weight="bold" font-family="'Helvetica Neue', Helvetica, Arial-Unicode, Arial, Sans-serif">Created by Alzam</text><text x="0" y="30.583334" fill="#000000" font-size="5px" font-weight="bold" font-family="'Helvetica Neue', Helvetica, Arial-Unicode, Arial, Sans-serif">from the Noun Project</text></svg>