<svg xmlns="http://www.w3.org/2000/svg" version="1.1" viewBox="-5.0 -10.0 110.0 135.0">
 <path d="m50 4.5898c-25.461 0-45.41 8.6016-45.41 19.57v51.691c0 10.969 19.949 19.559 45.41 19.559s45.41-8.5898 45.41-19.559v-51.691c0-10.969-19.949-19.559-45.41-19.559zm0 4c19.578 0 41.41 6.3906 41.41 15.559 0 9.1719-21.82 15.559-41.41 15.559s-41.41-6.3906-41.41-15.559c0-9.1719 21.82-15.559 41.41-15.559zm-41.41 23.719c7.0508 6.7891 22.738 11.41 41.41 11.41s34.359-4.6211 41.41-11.41v35.379c-7.0508-6.7891-22.738-11.41-41.41-11.41s-34.359 4.6211-41.41 11.41zm41.41 59.102c-19.578 0-41.41-6.3906-41.41-15.559 0-9.1719 21.82-15.559 41.41-15.559s41.41 6.3906 41.41 15.559c0 9.1719-21.82 15.559-41.41 15.559z"/>
<text x="0.0" y="117.5" font-size="5.0" font-weight="bold" font-family="Arbeit Regular, Helvetica, Arial-Unicode, Arial, Sans-serif" fill="#000000">Created by Ashwin Vgl</text><text x="0.0" y="122.5" font-size="5.0" font-weight="bold" font-family="Arbeit Regular, Helvetica, Arial-Unicode, Arial, Sans-serif" fill="#000000">from Noun Project</text></svg>